<svg width="89" height="29" fill="none" xmlns="http://www.w3.org/2000/svg"><path d="M.324 16.653c.408.72 5.252-1.52 13.098-4.547a103.411 103.411 0 0 1 13.954-4.301A62.27 62.27 0 0 1 44.794 6.31a47.516 47.516 0 0 1 16.74 4.205 78.42 78.42 0 0 1 12.634 7.103c2.854 1.985 5.157 3.798 6.926 5.203a94.77 94.77 0 0 0-2.613.046c-2.17.07-4.127.211-5.773.411-3.291.4-5.34 1.036-5.366 1.812-.026.777 1.976 1.547 5.234 2.164 1.63.308 3.573.579 5.733.793 1.08.107 2.215.2 3.392.276l1.795.102.919.042c.192.004.203.017.632.015.3-.006.6-.049.89-.126a3.28 3.28 0 0 0 2.222-1.995c.12-.31.196-.636.227-.967.02-.196.025-.394.018-.59l-.016-.309a14.762 14.762 0 0 0-.113-1.114 19.517 19.517 0 0 0-.402-2.007c-.32-1.247-.65-2.286-.977-3.332-.658-2.07-1.326-3.914-1.967-5.444-1.28-3.058-2.45-4.857-3.203-4.67-.754.186-.95 2.322-.658 5.625.146 1.652.414 3.595.796 5.732l.129.673a51.526 51.526 0 0 0-5.375-5.473A61.61 61.61 0 0 0 63.752 5.83 47.066 47.066 0 0 0 45.158.697a57.97 57.97 0 0 0-19.04 2.08 74.027 74.027 0 0 0-14.326 5.701C4.078 12.568-.04 16.03.324 16.653Z" fill="#468E0D"/></svg>